<svg width="81" height="54" viewBox="0 0 81 54" fill="none" xmlns="http://www.w3.org/2000/svg">
<rect x="7.29688" y="31.0801" width="66.3501" height="18.9186" fill="#292929"/>
<path d="M8.6061 46.5201C12.8077 43.8072 24.0417 38.6641 35.3609 41.4608C46.6801 44.2575 51.0734 45.6041 51.9528 45.9519C58.1334 47.2181 70.916 47.9248 72.6049 38.9557" stroke="#5A0000" stroke-width="10"/>
<path d="M7.65553 49.5788C11.8601 46.3061 23.1734 40.5776 34.7903 43.8453C46.4072 47.113 49.4306 47.5601 50.3369 47.9701C56.6726 49.4424 71.4908 50.3135 72.9549 39.5763" stroke="white" stroke-width="10"/>
<rect x="7.02734" y="29.3242" width="2.16212" height="20.6753" fill="#565656"/>
<rect x="14.1885" y="29.3242" width="2.16212" height="20.6753" fill="#565656"/>
<rect x="21.3506" y="29.3242" width="2.16212" height="20.6753" fill="#565656"/>
<rect x="28.5127" y="29.3242" width="2.16212" height="20.6753" fill="#565656"/>
<rect x="35.6748" y="29.3242" width="2.16212" height="20.6753" fill="#565656"/>
<rect x="42.8369" y="29.3242" width="2.16212" height="20.6753" fill="#565656"/>
<rect x="49.999" y="29.3242" width="2.16212" height="20.6753" fill="#565656"/>
<rect x="57.1611" y="29.3242" width="2.16212" height="20.6753" fill="#565656"/>
<rect x="64.3232" y="29.3242" width="2.16212" height="20.6753" fill="#565656"/>
<rect x="71.4854" y="29.3242" width="2.16212" height="20.6753" fill="#565656"/>
<path d="M32.3695 13.1094H43.2112L80.5391 31.082H0L32.3695 13.1094Z" fill="#929292"/>
<path d="M32.8421 0H43.6837L51.35 17.9726H25.6748L32.8421 0Z" fill="#878787"/>
</svg>
