<svg width="30" height="16" viewBox="0 0 30 16" fill="none" xmlns="http://www.w3.org/2000/svg">
<path d="M1.00348 9.14155C0.451198 9.14155 0.00348302 8.69384 0.00348372 8.14155C0.00348442 7.58927 0.4512 7.14155 1.00348 7.14155L1.00348 9.14155ZM29.7076 7.43448C30.0982 7.82501 30.0982 8.45817 29.7076 8.8487L23.3437 15.2127C22.9531 15.6032 22.32 15.6032 21.9295 15.2126C21.5389 14.8221 21.5389 14.189 21.9295 13.7984L27.5863 8.14159L21.9295 2.48473C21.5389 2.0942 21.539 1.46104 21.9295 1.07051C22.32 0.67999 22.9532 0.679991 23.3437 1.07052L29.7076 7.43448ZM1.00348 7.14155L29.0005 7.14159L29.0005 9.14159L1.00348 9.14155L1.00348 7.14155Z" fill="black"/>
</svg>
