<svg width="87" height="87" viewBox="0 0 87 87" fill="none" xmlns="http://www.w3.org/2000/svg">
<path d="M85 43.5C85 66.4198 66.4198 85 43.5 85C20.5802 85 2 66.4198 2 43.5C2 20.5802 20.5802 2 43.5 2C66.4198 2 85 20.5802 85 43.5Z" fill="white" stroke="#007E65" stroke-width="4"/>
<path d="M11 68H79C73.7692 74.3903 59.7413 86.6976 45.4755 84.8042C39.0559 83.8575 25.028 85.7509 11 68Z" fill="#007E65"/>
<path d="M26.2479 79L24.1953 71.7273H25.6122L26.9226 77.0717H26.9901L28.3892 71.7273H29.6783L31.081 77.0753H31.1449L32.4553 71.7273H33.8722L31.8196 79H30.5199L29.0639 73.897H29.0071L27.5476 79H26.2479ZM35.036 79H33.6298L36.1902 71.7273H37.8166L40.3805 79H38.9743L37.0318 73.2188H36.975L35.036 79ZM35.0822 76.1484H38.9174V77.2067H35.0822V76.1484ZM41.3384 79V71.7273H44.0657C44.6244 71.7273 45.0932 71.8243 45.4719 72.0185C45.8531 72.2126 46.1407 72.4848 46.3349 72.8352C46.5314 73.1832 46.6296 73.5893 46.6296 74.0533C46.6296 74.5196 46.5302 74.9245 46.3313 75.2678C46.1348 75.6087 45.8448 75.8726 45.4613 76.0597C45.0778 76.2443 44.6067 76.3366 44.0479 76.3366H42.1055V75.2429H43.8704C44.1971 75.2429 44.4646 75.1979 44.6729 75.108C44.8813 75.0156 45.0352 74.8819 45.1346 74.7067C45.2364 74.5291 45.2873 74.3113 45.2873 74.0533C45.2873 73.7952 45.2364 73.575 45.1346 73.3928C45.0328 73.2081 44.8777 73.0684 44.6694 72.9737C44.4611 72.8767 44.1924 72.8281 43.8633 72.8281H42.6559V79H41.3384ZM45.0955 75.7045L46.896 79H45.4258L43.6573 75.7045H45.0955ZM52.7145 74.0497C52.6553 73.858 52.5736 73.6863 52.4695 73.5348C52.3677 73.3809 52.2446 73.2495 52.1001 73.1406C51.9581 73.0317 51.7947 72.95 51.6101 72.8956C51.4254 72.8388 51.2242 72.8104 51.0064 72.8104C50.6158 72.8104 50.2678 72.9086 49.9624 73.1051C49.657 73.3016 49.4167 73.5904 49.2415 73.9716C49.0687 74.3504 48.9822 74.812 48.9822 75.3565C48.9822 75.9058 49.0687 76.371 49.2415 76.7521C49.4143 77.1333 49.6546 77.4233 49.9624 77.6222C50.2701 77.8187 50.6276 77.9169 51.0348 77.9169C51.4041 77.9169 51.7237 77.8459 51.9936 77.7038C52.2659 77.5618 52.4754 77.3606 52.6222 77.1001C52.7689 76.8374 52.8423 76.5296 52.8423 76.1768L53.1406 76.223H51.1662V75.1932H54.1172V76.0668C54.1172 76.6894 53.9846 77.228 53.7195 77.6825C53.4543 78.1371 53.0897 78.4875 52.6257 78.7337C52.1617 78.9775 51.629 79.0994 51.0277 79.0994C50.3577 79.0994 49.7694 78.9491 49.2628 78.6484C48.7585 78.3454 48.3643 77.9157 48.0803 77.3594C47.7985 76.8007 47.6577 76.1378 47.6577 75.3707C47.6577 74.7836 47.7405 74.2592 47.9062 73.7976C48.0743 73.3359 48.3087 72.9441 48.6094 72.6222C48.91 72.2978 49.2628 72.0516 49.6676 71.8835C50.0724 71.7131 50.5128 71.6278 50.9886 71.6278C51.3911 71.6278 51.7663 71.687 52.1143 71.8054C52.4624 71.9214 52.7713 72.0871 53.0412 72.3026C53.3134 72.518 53.5372 72.7737 53.7124 73.0696C53.8875 73.3655 54.0024 73.6922 54.0568 74.0497H52.7145ZM56.1005 79H54.6942L57.2546 71.7273H58.881L61.445 79H60.0387L58.0962 73.2188H58.0394L56.1005 79ZM56.1467 76.1484H59.9819V77.2067H56.1467V76.1484Z" fill="white"/>
<path d="M44.0001 21.6667C47.0943 21.6667 50.0617 22.8959 52.2497 25.0838C54.4376 27.2718 55.6667 30.2392 55.6667 33.3334C55.6667 36.4276 54.4376 39.3951 52.2497 41.583C50.0617 43.7709 47.0943 45.0001 44.0001 45.0001C40.9059 45.0001 37.9384 43.7709 35.7505 41.583C33.5626 39.3951 32.3334 36.4276 32.3334 33.3334C32.3334 30.2392 33.5626 27.2718 35.7505 25.0838C37.9384 22.8959 40.9059 21.6667 44.0001 21.6667ZM44.0001 50.8334C56.8918 50.8334 67.3334 56.0542 67.3334 62.5001V68.3334H20.6667V62.5001C20.6667 56.0542 31.1084 50.8334 44.0001 50.8334Z" fill="#616161"/>
</svg>
