<svg width="39" height="24" viewBox="0 0 39 24" fill="none" xmlns="http://www.w3.org/2000/svg">
<path d="M18.8602 11.5609C20.4485 11.5609 21.8238 10.9912 22.9475 9.86733C24.0712 8.74362 24.6409 7.36868 24.6409 5.78025C24.6409 4.19237 24.0712 2.81725 22.9473 1.69317C21.8234 0.569639 20.4483 0 18.8602 0C17.2718 0 15.8969 0.569639 14.7731 1.69335C13.6494 2.81707 13.0796 4.19218 13.0796 5.78025C13.0796 7.36868 13.6494 8.7438 14.7733 9.86751C15.8972 10.991 17.2723 11.5609 18.8602 11.5609Z" fill="#1BBC9B"/>
<path d="M28.9748 18.4556C28.9424 17.9879 28.8768 17.4778 28.7803 16.9391C28.6829 16.3964 28.5575 15.8833 28.4073 15.4144C28.2523 14.9297 28.0413 14.4511 27.7806 13.9924C27.5099 13.5163 27.1921 13.1018 26.8354 12.7607C26.4624 12.4038 26.0057 12.1169 25.4777 11.9076C24.9514 11.6994 24.3682 11.5939 23.7444 11.5939C23.4994 11.5939 23.2625 11.6945 22.8049 11.9924C22.5233 12.176 22.1938 12.3884 21.8262 12.6233C21.5118 12.8237 21.0859 13.0113 20.5598 13.1813C20.0466 13.3473 19.5255 13.4316 19.0111 13.4316C18.4968 13.4316 17.9758 13.3473 17.462 13.1813C16.9365 13.0115 16.5106 12.8238 16.1966 12.6235C15.8324 12.3908 15.5028 12.1784 15.217 11.9922C14.7599 11.6943 14.5228 11.5938 14.2778 11.5938C13.6538 11.5938 13.0708 11.6994 12.5447 11.9078C12.017 12.1167 11.5602 12.4036 11.1868 12.7609C10.8303 13.1022 10.5123 13.5165 10.242 13.9924C9.98145 14.4511 9.77051 14.9296 9.61523 15.4146C9.46527 15.8835 9.33984 16.3964 9.24243 16.9391C9.14594 17.4771 9.08038 17.9874 9.04797 18.4561C9.01611 18.9154 9 19.392 9 19.8734C9 21.1262 9.39825 22.1404 10.1836 22.8884C10.9592 23.6265 11.9855 24.0009 13.2336 24.0009H24.7897C26.0378 24.0009 27.0637 23.6267 27.8395 22.8884C28.6251 22.1409 29.0233 21.1265 29.0233 19.8732C29.0231 19.3896 29.0068 18.9126 28.9748 18.4556Z" fill="#1BBC9B"/>
<path d="M6.57349 10.7072C7.63232 10.7072 8.54919 10.3275 9.29834 9.57822C10.0475 8.82908 10.4272 7.91246 10.4272 6.8535C10.4272 5.79491 10.0475 4.87817 9.29822 4.12878C8.54895 3.37976 7.6322 3 6.57349 3C5.51453 3 4.5979 3.37976 3.84876 4.1289C3.09961 4.87804 2.71973 5.79479 2.71973 6.8535C2.71973 7.91246 3.09961 8.8292 3.84888 9.57834C4.59814 10.3274 5.51489 10.7072 6.57349 10.7072Z" fill="#1BBC9B"/>
<path d="M13.3165 15.3011C13.2949 14.9894 13.2512 14.6493 13.1869 14.2901C13.1219 13.9283 13.0383 13.5863 12.9382 13.2737C12.8348 12.9506 12.6942 12.6315 12.5204 12.3257C12.34 12.0083 12.1281 11.7319 11.8903 11.5045C11.6416 11.2666 11.3372 11.0753 10.9851 10.9358C10.6343 10.797 10.2455 10.7267 9.82959 10.7267C9.66626 10.7267 9.5083 10.7937 9.20325 10.9923C9.0155 11.1147 8.7959 11.2563 8.55078 11.413C8.34119 11.5465 8.05725 11.6716 7.70654 11.7849C7.36438 11.8956 7.01697 11.9518 6.67407 11.9518C6.33118 11.9518 5.98389 11.8956 5.64136 11.7849C5.29102 11.6717 5.00708 11.5466 4.79773 11.4131C4.55493 11.2579 4.33521 11.1163 4.14465 10.9922C3.83997 10.7936 3.68188 10.7266 3.51855 10.7266C3.10254 10.7266 2.71387 10.797 2.36316 10.9359C2.01135 11.0752 1.70679 11.2665 1.45789 11.5046C1.22021 11.7322 1.00818 12.0084 0.828003 12.3257C0.654297 12.6315 0.513672 12.9504 0.410156 13.2738C0.310181 13.5864 0.226562 13.9283 0.161621 14.2901C0.09729 14.6488 0.0535889 14.989 0.0319824 15.3015C0.0107422 15.6076 0 15.9254 0 16.2463C0 17.0815 0.265503 17.7577 0.789062 18.2563C1.30615 18.7484 1.99036 18.998 2.82239 18.998H10.5265C11.3585 18.998 12.0425 18.7485 12.5597 18.2563C13.0834 17.758 13.3489 17.0818 13.3489 16.2462C13.3488 15.9238 13.3379 15.6058 13.3165 15.3011Z" fill="#1BBC9B"/>
<path d="M31.9172 10.7072C32.9761 10.7072 33.8929 10.3275 34.6421 9.57822C35.3912 8.82908 35.771 7.91246 35.771 6.8535C35.771 5.79491 35.3912 4.87817 34.642 4.12878C33.8927 3.37976 32.976 3 31.9172 3C30.8583 3 29.9417 3.37976 29.1925 4.1289C28.4434 4.87804 28.0635 5.79479 28.0635 6.8535C28.0635 7.91246 28.4434 8.8292 29.1926 9.57834C29.9419 10.3274 30.8586 10.7072 31.9172 10.7072Z" fill="#1BBC9B"/>
<path d="M38.6603 15.3011C38.6387 14.9894 38.595 14.6493 38.5306 14.2901C38.4657 13.9283 38.3821 13.5863 38.282 13.2737C38.1786 12.9506 38.038 12.6315 37.8641 12.3257C37.6837 12.0083 37.4718 11.7319 37.234 11.5045C36.9854 11.2666 36.6809 11.0753 36.3289 10.9358C35.978 10.797 35.5892 10.7267 35.1733 10.7267C35.01 10.7267 34.8521 10.7937 34.547 10.9923C34.3593 11.1147 34.1396 11.2563 33.8945 11.413C33.6849 11.5465 33.401 11.6716 33.0503 11.7849C32.7081 11.8956 32.3607 11.9518 32.0178 11.9518C31.6749 11.9518 31.3276 11.8956 30.9851 11.7849C30.6348 11.6717 30.3508 11.5466 30.1415 11.4131C29.8987 11.2579 29.679 11.1163 29.4884 10.9922C29.1837 10.7936 29.0256 10.7266 28.8623 10.7266C28.4463 10.7266 28.0576 10.797 27.7069 10.9359C27.3551 11.0752 27.0505 11.2665 26.8016 11.5046C26.564 11.7322 26.3519 12.0084 26.1718 12.3257C25.998 12.6315 25.8574 12.9504 25.7539 13.2738C25.6539 13.5864 25.5703 13.9283 25.5054 14.2901C25.441 14.6488 25.3973 14.989 25.3757 15.3015C25.3545 15.6076 25.3438 15.9254 25.3438 16.2463C25.3438 17.0815 25.6093 17.7577 26.1328 18.2563C26.6499 18.7484 27.3341 18.998 28.1661 18.998H35.8702C36.7023 18.998 37.3862 18.7485 37.9034 18.2563C38.4271 17.758 38.6926 17.0818 38.6926 16.2462C38.6925 15.9238 38.6816 15.6058 38.6603 15.3011Z" fill="#1BBC9B"/>
</svg>
