<svg width="19" height="20" viewBox="0 0 19 20" fill="none" xmlns="http://www.w3.org/2000/svg">
<path d="M9.17 0H2C0.9 0 0 0.9 0 2V18C0 19.1 0.9 20 2 20H11V14C11 12.9 11.9 12 13 12H16V6.83C16 6.3 15.79 5.79 15.41 5.42L10.58 0.59C10.21 0.21 9.7 0 9.17 0ZM9 6V1.5L14.5 7H10C9.45 7 9 6.55 9 6ZM18.66 15C18.66 15.55 18.21 16 17.66 16H16.42L18.66 18.24C18.847 18.427 18.952 18.6806 18.952 18.945C18.952 19.2094 18.847 19.463 18.66 19.65C18.473 19.837 18.2194 19.942 17.955 19.942C17.6906 19.942 17.437 19.837 17.25 19.65L15 17.41V18.65C15 19.2 14.55 19.65 14 19.65C13.45 19.65 13 19.2 13 18.65V15C13 14.45 13.45 14 14 14H17.66C18.21 14 18.66 14.45 18.66 15Z" fill="#8752CA"/>
</svg>
